<?xml version="1.0" encoding="utf-8"?>
<!-- Generator: Adobe Illustrator 28.2.0, SVG Export Plug-In . SVG Version: 6.00 Build 0)  -->
<svg version="1.1" id="Bold" xmlns="http://www.w3.org/2000/svg" xmlns:xlink="http://www.w3.org/1999/xlink" x="0px" y="0px"
	 viewBox="0 0 512 512" style="enable-background:new 0 0 512 512;" xml:space="preserve">
<g>
	<path d="M247.8,203.2L150,105.4c-12.5-12.5-32.8-12.5-45.3,0c-12.5,12.5-12.5,32.8,0,45.3l97.8,97.8c4.2,4.2,4.2,10.9,0,15.1
		c0,0,0,0,0,0l-97.8,97.8c-12.5,12.5-12.5,32.8,0,45.3s32.8,12.5,45.3,0l97.8-97.8C276.9,279.6,276.9,232.4,247.8,203.2z"/>
	<path d="M394.8,203.2L297,105.4c-12.5-12.5-32.8-12.5-45.3,0c-12.5,12.5-12.5,32.8,0,45.3l97.8,97.8c4.2,4.2,4.2,10.9,0,15.1
		c0,0,0,0,0,0l-97.8,97.8c-12.5,12.5-12.5,32.8,0,45.3s32.8,12.5,45.3,0l97.8-97.8C423.9,279.6,423.9,232.4,394.8,203.2z"/>
</g>
</svg>
