<?xml version="1.0" encoding="UTF-8"?>
<svg id="svg8" xmlns="http://www.w3.org/2000/svg" version="1.1" xmlns:cc="http://creativecommons.org/ns#" xmlns:dc="http://purl.org/dc/elements/1.1/" xmlns:inkscape="http://www.inkscape.org/namespaces/inkscape" xmlns:rdf="http://www.w3.org/1999/02/22-rdf-syntax-ns#" xmlns:sodipodi="http://sodipodi.sourceforge.net/DTD/sodipodi-0.dtd" xmlns:svg="http://www.w3.org/2000/svg" viewBox="0 0 300 294">
  <!-- Generator: Adobe Illustrator 30.0.0, SVG Export Plug-In . SVG Version: 2.1.1 Build 123)  -->
  <path id="path75" d="M60.9,194.8c7.3-4.8,14.4-8.1,31.7-14.7,10.9-5.7,26.6-3.8,34.7-14.1.8-1.2-3.6-9.9-8-15.7-4.2-5.6-11.8-13.2-19.9-20-8.1-6.8-7.5-6.5-9.5-5.3-5.8,3.5-12.5,9.1-25.9,21.6-15.2,14.2-18.8,17.3-25.9,22-3.4,2.3-10.2,5.9-13.2,7.1-1.5.6-1.9,1-3,3.2-5.6,11-8.3,23.3-7,31.2.9,5.6,4.8,11.6,8.2,12.7.8.3,2.8.4,4.5.4,13.8-4.6,21.6-20.7,33.2-28.4ZM95.6,165.1c-2.1-1.9-4.2-3.7-4.6-3.9-.8-.5-1.5.1-4.3,4-2.2,2.9-2.8,3.1-5.2,1.5-2.4-1.6-7.6-6.8-7.6-7.6s3.8-7.6,4.7-8.5c.7-.7,2.1.1,7.2,4.4,1.9,1.6,3.8,2.9,4.1,2.8s1.7-1.7,3-3.7c2-2.9,2.6-3.6,3.5-3.6s2.3,1.2,5.7,4.6c2.6,2.5,4.7,4.9,4.7,5.2,0,1-3.3,6.2-4.6,7.3-.7.6-1.5,1-1.9,1s-2.4-1.6-4.6-3.5ZM230.6,212.9c2-1.1,4.4-2.7,5.9-4.2,2.5-2.4,2.6-2.6,2.6-4.5,0-5.3-3-9.7-7.1-11.8-3.1-1.6-9.5-1.5-10.4.8-1.3,3.7-.6,9.4,1.8,15.5,1.5,3.8,2.7,6,3.4,6s2-.8,3.8-1.7ZM111.6,247.3c18.6-6,35-13.2,46.6-23.6,3.3-3.1,3.6-3.5,3.4-4.6-.5-2.4-4-10.7-9.1-21.5-8.3-17.5-8.2-17.2-7.6-20.2.8-4.4,2.2-7.6,3.3-7.6s14.8,16,14.8,16.6-2.2.8-4.2-.2c-1.1-.6-1.8-.7-2.1-.5-.7.7.7,4.5,4,11.2,5.4,10.9,6.7,16.8,5.4,23.4-1.2,5.8-3.8,10.1-9.3,15.8-15.9,13.4-26.5,20.9-46.6,28.5,0,0,1.4,8.6,3.7,13.3,3.6,7.2,10.8,6.3,17.5,3.2,15.8-8.9,17.8-18.2,30.3-31.6,8.9-9.4,16.5-16,35.1-23.8,11.5-4.8,22.4-6.5,22.4-7.4,0-.4-.4-2.9-1-5.5-2.1-9.9-2.4-17.9-.9-23.6,1.6-6.2,5.4-11.3,9.2-12.5,2.2-.7,6-.6,7.6,0,.7.3,2.2,1.5,3.2,2.6,5.2,5.8,7.9,15.7,6.4,23.7-1.4,7.3-4.3,12.9-9.8,18.7l-3.3,3.4,1.1,1.6c3.9,5.7,19.4,5.5,35-1.5.1-.6-.5-8.8-1.5-18.4-1.8-17.6-2.1-20.5-7.6-64-7.3-57.5-8.6-68.1-10.5-83.4-1.1-8.9-2-17.7-2-17.7l3.5-7.8c2.5,8.3,11.8,28.7,11.8,28.7,0,0-1.6-.8-2.5-1.9s-2.1-1.9-2.1-1.9c0,0-.4,1-.2,3,.1,1.6.5,6.3.9,10.4,1.6,20,2,23,14,122.6,1.9,16.1,1.9,15.8,1.5,21.8-.8,10.6-3,16.8-7.7,21.4-4.5,4.5-11.6,7.2-19.1,7.3-4.8,0-8-.8-11-2.9-2.6-1.8-6.1-6.1-8.5-10.3-.9-1.6-1.9-3-2.2-3-.7,0-13.6,2.9-20,5.7-9.9,4.4-22.7,13.1-26.5,15.7-5.4,3.6-12.1,10.3-21.1,20.8-12.1,14.2-18.1,19.9-22.7,21.6-2.7,1-6.5,1-9.7.2-3.3-.9-6.1-2.5-9.1-5.4-4.5-4.2-7-9.4-8.4-17.7-.3-2-.5-4.5-.5-4.5,0,0-3.5.6-6.8,1.1-8.6,1.2-19.4,1.2-24.9,0-10.5-2.2-18-8.5-22-18.5-2.2-5.3-3.2-11.2-3.6-19.8-.2-4.1-.4-5.9-.7-5.9-.5,0-1.4.7-6.5,4.8-4.2,3.4-5.9,4-10.5,3.8-5.1-.2-8.2-1.8-12.5-6.2-10.2-10.4-10.2-23.5-.1-47.4.4-.9.6-1.7.4-1.9s-1.6-1-3.3-1.8c-7.6-3.6-12.9-9.6-14.5-16.3-2.6-14.5,2.8-25.1,9.2-37.9-.7,12.7-9.7,29.3-2.4,40,2.5,3.7,10,3.9,15.1,2.8,3-.7,11.2-5.7,18.2-11,17.8-14.5,22.6-18.4,38.6-33.2,1.5-1.4,2.7-2.8,2.6-3.1-.2-.4-51.3-39.6-53-40.6l-2.2-1.8v-5.8c.1-6,.8-9.7,2.7-14.5l.9-2.2,6.8-3.9C70.8,27.7,113.1,11.9,160.5.6c3.7-.9,8.6-.7,10.8.4,3.7,1.9,5.1,4.2,5.1,8.3,0,8.8-7.1,20.6-22.2,37-3.6,3.9-8.2,9.1-11.2,12.8l-1.4,1.6.2-1.6c.1-.9,1.1-3.3,2.1-5.3,2.9-5.8,4.5-7.7,19.7-24.4,5-5.5,6.9-8.4,6.9-10.4s-.9-4.1-2.5-5.5l-1.4-1.2-7,.2c-19.9,1.7-29,7.5-46.4,12.7-5.7,1.7-37,12.8-50,18.4-11.6,5-31.3,15.1-31.3,16.1s-.3.3,41.3,29.2c5.7,3.9,13.4,9.3,17.2,12,3.8,2.7,7.2,5,7.5,5.1s1.9-.3,3.5-1c7.6-3.1,14.4-4.6,21.4-4.6,2.4,0,4.5-.2,4.6-.4.3-.5-1.2-6.6-4.2-17.1-6.1-21.5-6.9-31.3-3.3-39.8.8-2,1.5-2.4,2.2-1.4,1,1.3,9.7,19.7,9.5,19.9-.1.1-1,0-1.9-.4-3-1.2-3-1.1-2.7,2.7.4,4.8,2.1,12.9,3.8,18,3.7,11.1,8.7,18,17.9,24.5,3,2.1,3.2,2.3,3.7,4.4.7,3.1.3,10.3-.6,11.2-.6.6-.8.5-2.7-1.1-7.5-6.2-17.4-9.4-27-8.6-4.2.3-9.7,1.8-9.7,2.6s2.2,2.3,4.8,4.4c13.9,11.2,30.5,25.2,41.6,35.2,7.2,6.4,13.5,10.8,15.6,10.8s.9-.1.7-1.7c-.1-1-.4-4-.7-6.7-.7-7.9-2.3-21.9-4.3-37.6-1-8-2.3-18.2-2.9-22.6-1.4-10.9-2.9-24.1-3.5-31l-.5-5.7c.6-.9,3.2-5.7,3.2-5.7l12.6,28s-1.5-.6-2.9-1.8-2.7-2-2.8-1.8c-.4.4,2.1,21.9,5.6,48.4,1.4,10.6,3.6,29.1,4.1,34.3.6,5.7.8,6.2,4.2,6.6,4.2.5,11.3-2.1,15.9-5.9,1-.8,2-1.9,2.2-2.3.5-1.1-1.1-15.7-4.8-43.4-1.5-11-2.8-21.2-3-22.8-.2-1.6-1.2-9.1-2.2-16.7s-2.1-15.9-2.5-18.5c-2.4-18-3.3-24.8-4.8-33.7-2-12.4-2.1-13.7-2.1-13.7,0,0,2.8-9,3.2-9,1.2,0,14.1,27.8,14.1,27.8l-6.9-3.5s0,11.8,7.6,67.4c5,37,7.6,56.9,7.6,59.3,0,7-2.5,14-6.4,18-3.6,3.7-9.4,7.1-15.4,9-1.2.4-3.6.2-3.9.4-.2.2,1.3,18.2,1.3,26.3,0,11.6-1.4,49.2-2.2,53.6-.9,5.2-3.6,14.2-4.1,14.2s-.4-4-.6-8.9c-.2-8.7.3-64.6-1-77-.9-8.3-.6-7.6-3.4-8.7-7.1-2.8-13.5-7.4-23.9-17.3-18.4-17.4-23.9-22.2-32.7-28.5-1.8-1.3-3.4-2.3-3.6-2.3-.8,0-.2,1.1,2.1,3.6,4.3,4.9,7,8.8,9.3,13.4,2.9,5.8,3.9,9.8,3.9,15.1,0,10.4-3,14.8-14.4,21-4.7,2.5-9.2,4.3-19.2,7.7-17.6,5.8-24.2,8.6-31.1,13.1-5.7,3.7-11.9,9.5-13.6,12.8-1.2,2.3-.5,11.6,1.4,17.5,3.2,10,11.9,14.4,22.9,17.2,10.3,1.9,18.3-.2,29.9-3.6,2.1-6.1,9.2-18.1,11.6-23.7-1.1,6.8-5.5,16.3-6.8,21.6h0ZM109,216.2c-2.2-2.2-3.6-3.9-3.6-4.5,0-1.1,2.9-5.5,4.6-6.9.8-.7,1.5-1,1.9-.8,5.2,3.3,7,6,9.9,9,0,1.2-2.3,4.1-5.4,8.3-2.1,0-3.3-.9-7.5-5.1h0ZM12.1,116l-.6-1.8c-1-3.1-1.5-7.7-1.1-10.8,1.1-7.8,3.1-11,11-21.7,1.8-1.6,6.9-7.5,6-5,0,.1-3,4.7-3,4.8-3.2,4.8-5.8,10.1-6.5,13.2-.6,2.7-.6,6.4.2,8.9,1.3,4.2,2.8,4.5,6.2.9,1.3-1.4,2.7-2.5,3.1-2.5.9,0,.9.1.1,2.7-2.9,6.2-11.3,18.3-15.4,11.3ZM93.3,286.9c-2.7-1.1-3.7-6.1-2.5-12.2.7-3.7,1.2-4.9,1.9-4.9s.4,1.1.2,3.8c-.3,4.1,0,6,1.5,7.6,1.1,1.2,2,1.2,3.1,0,1.7-1.8,2.3,0,.9,2.9-1.5,3.1-2.9,3.9-5.2,2.9h0ZM211,272.8c-2.4-5.8-5-8.5-9.6-9.6-1.3-.3-1.9-.8-2.6-1.9-1.2-2-1.5-4.5-.6-6.5.6-1.5.7-1.5,2-1.3,3.1.7,6.6,4,9.7,9.3,1.6,2.7,2.9,4.5,3,4,0,0,.3-2.7.6-5.8.6-6.2,1.9-9.8,3.7-10.7,2.1-.9,4.9.5,6.3,3.2.7,1.3.6,1.9-.4,3.2-.9,1.2-1.5,1.1-3.8-.8-1.4-1.2-2.4-1.2-3.3-.2-.5.6-.7,1.7-.7,5.4,0,7.2-1.3,14.4-2.6,14.4s-1-1.2-1.6-2.8h0ZM150.9,142.4s3.5-3.5,6.3-5.5c-2.2-.4-5.5-4.9-5.1-6.3.4-1.5,3.3-4.5,5.4-5.5,2.5-1.2,3.5-.7,3.5,1.9s-.7,2.1-.7,2.1c0,0,.2-.9-.3-1.4-1.8-.6-5.4,1.5-4.8,3.3.5,1.3,2.4,2.3,4.2,2.3s2.6-.4,4.2-.8c1.6-.4,3.4-1.3,3.4-1.3.2.7.3,2.3.3,2.8-4.3,4-14.6,9.4-14.6,9.4l-1.8-.9ZM287.5,204.1c-.1-.6-.8-9.1-1.5-18.8-1.5-20.7-2.1-27-3.7-39-.7-4.9-1.8-12.8-2.5-17.7-.7-4.9-1.6-11.3-2-14.4-.4-3.1-1.5-10.4-2.3-16.2-2.7-19.1-3.4-21.9-3.4-21.9l2.6-11.9c5.3,8.9,14.9,29,14.9,29l-7.7-4.5s2.3,21.1,4.5,35.9c4.5,29.8,5.8,42.9,5.8,58.9,0,10.8-.2,12.2-2.5,17.9-1.5,3.7-1.9,4.1-2.2,2.6h0ZM239.5,160.5c-2.1-1.9-4.2-3.7-4.6-3.9-.6-.3-1.2.3-3.6,3.3-1.6,2-3.1,3.7-3.3,3.7-1.6,0-10.3-7.7-10.3-9.1s4.7-8.6,5.3-8.6c.9,0,3.1,1.5,6.8,4.6,1.8,1.6,3.6,2.8,3.9,2.7.6-.1,1.8-1.6,4.4-5.4.8-1.2,1.6-1.9,2.1-1.9,1,0,3.7,2.3,7.6,6.5l3.2,3.4-1.7,2.9c-2.1,3.5-3.8,5.3-5,5.3-.5,0-2.5-1.5-4.8-3.5h0ZM232.4,143.4c-.1-.7-.3-2.6-.3-4.2-5.1-28-6.9-60.5-15.2-110.3-.7-3.6-1.2-8.3-1.2-8.3l3.9-9.1,12.7,29.6-5.8-3.6c4.5,34.2,6.7,52.1,8.9,69.1,1.4,9.3,1.6,19.6.6,26.8-.6,4.7-2.4,11.3-3,11.3s-.5-.6-.6-1.3h0ZM294.9,140.5c-2.2-2-2.6-3.3-2.6-8.9,0-4.8.5-8.3,1.9-13.4.7-2.4,1.1-.8.7,2.6-.8,7.3-.9,8.9-.2,11.3.4,1.3,1.1,2.8,1.7,3.5l1,1.1,1-.9c.9-.8,1-.9,1.3-.3.5,1.4.2,3.8-.6,4.9-1.1,1.4-2.8,1.4-4.2.1ZM209.6,71.9c-2.7-1.6-3.9-7-3-12.9.5-3.4,1.6-7.2,2.1-7.2s.2,1.4,0,3.2c-.6,5.5,0,9.4,2.1,11.7,1,1.1,2,.9,2.8-.5.8-1.5,1.6-1.4,1.8.2.2,1.9-.3,3.8-1.4,5.1-1.2,1.5-2.3,1.6-4.2.4h0ZM48.3,125.2c-2.5-1.3-3.5-4.8-2.9-10.3.6-5.6,3.1-13.8,4.2-13.8s.1,4.1-.8,7.5c-1,3.8-.9,7.2.2,9.5,1.1,2.3,1.6,2.6,3.3,1.9,1.7-.7,2.2-.1,1.6,1.9-.8,2.9-3.6,4.5-5.8,3.3ZM96.4,74.4c-1.4-1.8-2.2-5-2.2-8.6,0-3.7,1-8.8,2-9.9.6-.7.6-.4.3,2.5-.6,6-1.8,7.8.5,10.4.7.8,2.3,1.7,3.2.4,1-1.5,1.9-1.4,1.9.2s-.9,3.7-2.3,5c-1.4,1.4-2.4,1.4-3.4,0Z" inkscape:connector-curvature="0" sodipodi:nodetypes="cccsssssscccccscscscsccscscssccsaccsccccssssccssccsccscssscssscccsssccccccssccccccscscccccccscsscccsscccsccccccscsssccccsccsccccsscsssccscccccscccssssssccssccccssscsscscccscsccscsccccssssscscsscsssscccccscccccccsccsccssccccsccccccssccsscssccccssscccsscccscccccccsccsccccssscsccssccccssccssccccccccsscscsccccsccsccsccscccccsscscccccccacsccc"/>
</svg>