<?xml version="1.0" encoding="utf-8"?>
<!-- Generator: Adobe Illustrator 28.2.0, SVG Export Plug-In . SVG Version: 6.00 Build 0)  -->
<svg version="1.1" id="Layer_1" xmlns="http://www.w3.org/2000/svg" xmlns:xlink="http://www.w3.org/1999/xlink" x="0px" y="0px"
	 viewBox="0 0 512 512" style="enable-background:new 0 0 512 512;" xml:space="preserve">
<path d="M74.2,457.1C33.9,416.4,8.4,363.3,1.9,306.4C-14.3,166,86.4,39.2,226.8,23C304,14.1,381,40.7,436.3,95.4
	c100.4,99.5,101.2,261.6,1.7,362c-27,27.6-70.6,30.1-100.6,5.8L310,441.1c-0.5-0.4-0.9-0.7-1.3-1.1c-13.4-11.5-15-31.7-3.5-45.1
	c11.5-13.4,31.7-15,45.1-3.5l27.4,22.2c4.6,3.5,11,3,14.9-1.2c74.2-74.7,74.3-195.3,0.3-270.2c-74.5-75.4-196.1-76.2-271.5-1.6
	s-76.2,196.1-1.6,271.5c3.9,4.2,10.4,4.8,14.9,1.2l26.5-21.9c0.5-0.4,1-0.8,1.5-1.2c13.9-10.9,34.1-8.3,44.9,5.6
	c10.9,13.9,8.3,34.1-5.6,44.9l-26.5,21.9C145.5,487.5,101.4,485.1,74.2,457.1L74.2,457.1z M253.7,235.6
	c-21.5,1.4-38.6,18.5-39.9,39.9c-1.5,23.5,16.4,43.8,39.9,45.2c23.5,1.5,43.8-16.4,45.2-39.9l54.6-54.7c12.5-12.5,12.5-32.8,0-45.3
	c-12.5-12.5-32.8-12.5-45.3,0L253.7,235.6L253.7,235.6z"/>
</svg>
