<?xml version="1.0" encoding="utf-8"?>
<!-- Generator: Adobe Illustrator 28.2.0, SVG Export Plug-In . SVG Version: 6.00 Build 0)  -->
<svg version="1.1" id="Layer_1" xmlns="http://www.w3.org/2000/svg" xmlns:xlink="http://www.w3.org/1999/xlink" x="0px" y="0px"
	 viewBox="0 0 512 512" style="enable-background:new 0 0 512 512;" xml:space="preserve">
<path d="M437.9,457.1c-27.2,28-71.3,30.4-101.4,5.5l-26.5-21.9c-13.9-10.9-16.5-31-5.6-44.9c10.9-13.9,31-16.5,44.9-5.6
	c0.5,0.4,1,0.8,1.5,1.2l26.5,21.9c4.5,3.5,11,3,14.9-1.2c74.5-75.4,73.8-197-1.6-271.5s-197-73.8-271.5,1.6
	c-74,74.9-73.9,195.5,0.3,270.2c3.9,4.2,10.4,4.7,14.9,1.2l27.4-22.2c13.4-11.5,33.6-9.9,45.1,3.5c11.5,13.4,9.9,33.6-3.5,45.1
	c-0.4,0.4-0.9,0.7-1.3,1.1l-27.3,22.2c-30,24.3-73.6,21.7-100.6-5.8c-99.5-100.4-98.7-262.5,1.7-362C131.1,40.7,208.2,14.1,285.4,23
	c140.4,16.2,241.1,143,224.9,283.4C503.7,363.3,478.3,416.4,437.9,457.1L437.9,457.1z"/>
<path d="M288.1,263.2v-77.4c0-17.7-14.3-32-32-32c-17.7,0-32,14.3-32,32l0,77.3c-15.6,17.7-13.9,44.6,3.7,60.2
	c17.7,15.6,44.6,13.9,60.2-3.7C302.2,303.5,302.2,279.3,288.1,263.2L288.1,263.2z"/>
</svg>
