<?xml version="1.0" encoding="utf-8"?>
<!-- Generator: Adobe Illustrator 28.2.0, SVG Export Plug-In . SVG Version: 6.00 Build 0)  -->
<svg version="1.1" id="Bold" xmlns="http://www.w3.org/2000/svg" xmlns:xlink="http://www.w3.org/1999/xlink" x="0px" y="0px"
	 viewBox="0 0 512 512" style="enable-background:new 0 0 512 512;" xml:space="preserve">
<g>
	<path d="M264.2,308.8l97.8,97.8c12.5,12.5,32.8,12.5,45.3,0c12.5-12.5,12.5-32.8,0-45.3l-97.8-97.8c0,0,0,0,0,0
		c-4.2-4.2-4.2-10.9,0-15.1l97.8-97.8c12.5-12.5,12.5-32.8,0-45.3s-32.8-12.5-45.3,0l-97.8,97.8
		C235.1,232.4,235.1,279.6,264.2,308.8z"/>
	<path d="M117.2,308.8l97.8,97.8c12.5,12.5,32.8,12.5,45.3,0c12.5-12.5,12.5-32.8,0-45.3l-97.8-97.8c0,0,0,0,0,0
		c-4.2-4.2-4.2-10.9,0-15.1l97.8-97.8c12.5-12.5,12.5-32.8,0-45.3c-12.5-12.5-32.8-12.5-45.3,0l-97.8,97.8
		C88.1,232.4,88.1,279.6,117.2,308.8z"/>
</g>
</svg>
